<?xml version="1.0" encoding="UTF-8" standalone="no"?>
<!DOCTYPE svg PUBLIC "-//W3C//DTD SVG 1.1//EN"
 "http://www.w3.org/Graphics/SVG/1.1/DTD/svg11.dtd">
<!-- Generated by graphviz version 2.40.1 (20161225.0304)
 -->
<!-- Title: dependencies Pages: 1 -->
<svg width="504pt" height="284pt"
 viewBox="0.00 0.00 504.00 284.00" xmlns="http://www.w3.org/2000/svg" xmlns:xlink="http://www.w3.org/1999/xlink">
<g id="graph0" class="graph" transform="scale(1 1) rotate(0) translate(4 280)">
<title>dependencies</title>
<polygon fill="#ffffff" stroke="transparent" points="-4,4 -4,-280 500,-280 500,4 -4,4"/>
<text text-anchor="start" x="227.0091" y="-42.4" font-family="sans-serif" font-weight="bold" font-size="14.00" fill="#000000">Legend</text>
<polygon fill="#ffffb3" stroke="transparent" points="14,-10 14,-30 34,-30 34,-10 14,-10"/>
<text text-anchor="start" x="37.629" y="-15.4" font-family="sans-serif" font-size="14.00" fill="#000000"> &#160;Declarations</text>
<polygon fill="#8dd3c7" stroke="transparent" points="127,-10 127,-30 147,-30 147,-10 127,-10"/>
<text text-anchor="start" x="150.7251" y="-15.4" font-family="sans-serif" font-size="14.00" fill="#000000"> &#160;Module</text>
<polygon fill="#80b1d3" stroke="transparent" points="213,-10 213,-30 233,-30 233,-10 213,-10"/>
<text text-anchor="start" x="236.7812" y="-15.4" font-family="sans-serif" font-size="14.00" fill="#000000"> &#160;Bootstrap</text>
<polygon fill="#fdb462" stroke="transparent" points="310,-10 310,-30 330,-30 330,-10 310,-10"/>
<text text-anchor="start" x="333.6732" y="-15.4" font-family="sans-serif" font-size="14.00" fill="#000000"> &#160;Providers</text>
<polygon fill="#fb8072" stroke="transparent" points="406,-10 406,-30 426,-30 426,-10 406,-10"/>
<text text-anchor="start" x="429.7258" y="-15.4" font-family="sans-serif" font-size="14.00" fill="#000000"> &#160;Exports</text>
<g id="clust1" class="cluster">
<title>cluster_ValidationWarningModule</title>
<polygon fill="none" stroke="#000000" stroke-dasharray="1,5" points="95,-70 95,-268 401,-268 401,-70 95,-70"/>
</g>
<g id="clust3" class="cluster">
<title>cluster_ValidationWarningModule_imports</title>
<polygon fill="none" stroke="#000000" points="103,-78 103,-130 393,-130 393,-78 103,-78"/>
</g>
<g id="clust4" class="cluster">
<title>cluster_ValidationWarningModule_exports</title>
<polygon fill="none" stroke="#000000" points="166,-208 166,-260 330,-260 330,-208 166,-208"/>
</g>
<!-- CommonModule -->
<g id="node1" class="node">
<title>CommonModule</title>
<polygon fill="#8dd3c7" stroke="#000000" points="384.6681,-122 381.6681,-126 360.6681,-126 357.6681,-122 273.3319,-122 273.3319,-86 384.6681,-86 384.6681,-122"/>
<text text-anchor="middle" x="329" y="-99.8" font-family="Times,serif" font-size="14.00" fill="#000000">CommonModule</text>
</g>
<!-- ValidationWarningModule -->
<g id="node3" class="node">
<title>ValidationWarningModule</title>
<polygon fill="#8dd3c7" stroke="#000000" points="331.6288,-187 328.6288,-191 307.6288,-191 304.6288,-187 164.3712,-187 164.3712,-151 331.6288,-151 331.6288,-187"/>
<text text-anchor="middle" x="248" y="-164.8" font-family="Times,serif" font-size="14.00" fill="#000000">ValidationWarningModule</text>
</g>
<!-- CommonModule&#45;&gt;ValidationWarningModule -->
<g id="edge1" class="edge">
<title>CommonModule&#45;&gt;ValidationWarningModule</title>
<path fill="none" stroke="#000000" d="M302.4902,-122.1061C302.4902,-122.1061 302.4902,-140.991 302.4902,-140.991"/>
<polygon fill="#000000" stroke="#000000" points="298.9903,-140.9909 302.4902,-150.991 305.9903,-140.991 298.9903,-140.9909"/>
</g>
<!-- ReactiveFormsModule -->
<g id="node2" class="node">
<title>ReactiveFormsModule</title>
<polygon fill="#8dd3c7" stroke="#000000" points="255.3047,-122 252.3047,-126 231.3047,-126 228.3047,-122 110.6953,-122 110.6953,-86 255.3047,-86 255.3047,-122"/>
<text text-anchor="middle" x="183" y="-99.8" font-family="Times,serif" font-size="14.00" fill="#000000">ReactiveFormsModule</text>
</g>
<!-- ReactiveFormsModule&#45;&gt;ValidationWarningModule -->
<g id="edge2" class="edge">
<title>ReactiveFormsModule&#45;&gt;ValidationWarningModule</title>
<path fill="none" stroke="#000000" d="M209.669,-122.1061C209.669,-122.1061 209.669,-140.991 209.669,-140.991"/>
<polygon fill="#000000" stroke="#000000" points="206.1691,-140.9909 209.669,-150.991 213.1691,-140.991 206.1691,-140.9909"/>
</g>
<!-- ReactiveFormsModule  -->
<g id="node4" class="node">
<title>ReactiveFormsModule </title>
<polygon fill="#fb8072" stroke="#000000" points="321.8045,-252 174.1955,-252 174.1955,-216 321.8045,-216 321.8045,-252"/>
<text text-anchor="middle" x="248" y="-229.8" font-family="Times,serif" font-size="14.00" fill="#000000">ReactiveFormsModule </text>
</g>
<!-- ValidationWarningModule&#45;&gt;ReactiveFormsModule  -->
<g id="edge3" class="edge">
<title>ValidationWarningModule&#45;&gt;ReactiveFormsModule </title>
<path fill="none" stroke="#000000" stroke-dasharray="5,2" d="M248,-187.1061C248,-187.1061 248,-205.991 248,-205.991"/>
<polygon fill="#000000" stroke="#000000" points="244.5001,-205.9909 248,-215.991 251.5001,-205.991 244.5001,-205.9909"/>
</g>
</g>
</svg>
