<?xml version="1.0" encoding="UTF-8" standalone="no"?>
<!DOCTYPE svg PUBLIC "-//W3C//DTD SVG 1.1//EN"
 "http://www.w3.org/Graphics/SVG/1.1/DTD/svg11.dtd">
<!-- Generated by graphviz version 2.40.1 (20161225.0304)
 -->
<!-- Title: dependencies Pages: 1 -->
<svg width="1718pt" height="358pt"
 viewBox="0.00 0.00 1718.00 358.00" xmlns="http://www.w3.org/2000/svg" xmlns:xlink="http://www.w3.org/1999/xlink">
<g id="graph0" class="graph" transform="scale(1 1) rotate(0) translate(4 354)">
<title>dependencies</title>
<polygon fill="#ffffff" stroke="transparent" points="-4,4 -4,-354 1714,-354 1714,4 -4,4"/>
<text text-anchor="start" x="834.0091" y="-42.4" font-family="sans-serif" font-weight="bold" font-size="14.00" fill="#000000">Legend</text>
<polygon fill="#ffffb3" stroke="transparent" points="621,-10 621,-30 641,-30 641,-10 621,-10"/>
<text text-anchor="start" x="644.629" y="-15.4" font-family="sans-serif" font-size="14.00" fill="#000000"> &#160;Declarations</text>
<polygon fill="#8dd3c7" stroke="transparent" points="734,-10 734,-30 754,-30 754,-10 734,-10"/>
<text text-anchor="start" x="757.7251" y="-15.4" font-family="sans-serif" font-size="14.00" fill="#000000"> &#160;Module</text>
<polygon fill="#80b1d3" stroke="transparent" points="820,-10 820,-30 840,-30 840,-10 820,-10"/>
<text text-anchor="start" x="843.7812" y="-15.4" font-family="sans-serif" font-size="14.00" fill="#000000"> &#160;Bootstrap</text>
<polygon fill="#fdb462" stroke="transparent" points="917,-10 917,-30 937,-30 937,-10 917,-10"/>
<text text-anchor="start" x="940.6732" y="-15.4" font-family="sans-serif" font-size="14.00" fill="#000000"> &#160;Providers</text>
<polygon fill="#fb8072" stroke="transparent" points="1013,-10 1013,-30 1033,-30 1033,-10 1013,-10"/>
<text text-anchor="start" x="1036.7258" y="-15.4" font-family="sans-serif" font-size="14.00" fill="#000000"> &#160;Exports</text>
<g id="clust1" class="cluster">
<title>cluster_AppModule</title>
<polygon fill="none" stroke="#000000" stroke-dasharray="1,5" points="8,-70 8,-274 874,-274 874,-70 8,-70"/>
</g>
<g id="clust3" class="cluster">
<title>cluster_AppModule_imports</title>
<polygon fill="none" stroke="#000000" points="16,-78 16,-130 866,-130 866,-78 16,-78"/>
</g>
<g id="clust5" class="cluster">
<title>cluster_AppModule_bootstrap</title>
<polygon fill="none" stroke="#000000" points="433,-214 433,-266 557,-266 557,-214 433,-214"/>
</g>
<g id="clust7" class="cluster">
<title>cluster_AppRoutingModule</title>
<polygon fill="none" stroke="#000000" stroke-dasharray="1,5" points="882,-138 882,-206 1218,-206 1218,-138 882,-138"/>
</g>
<g id="clust9" class="cluster">
<title>cluster_AppRoutingModule_imports</title>
<polygon fill="none" stroke="#000000" points="1016,-146 1016,-198 1210,-198 1210,-146 1016,-146"/>
</g>
<g id="clust10" class="cluster">
<title>cluster_AppRoutingModule_exports</title>
<polygon fill="none" stroke="#000000" points="890,-146 890,-198 1008,-198 1008,-146 890,-146"/>
</g>
<g id="clust13" class="cluster">
<title>cluster_CoreModule</title>
<polygon fill="none" stroke="#000000" stroke-dasharray="1,5" points="1226,-138 1226,-206 1510,-206 1510,-138 1226,-138"/>
</g>
<g id="clust15" class="cluster">
<title>cluster_CoreModule_imports</title>
<polygon fill="none" stroke="#000000" points="1374,-146 1374,-198 1502,-198 1502,-146 1374,-146"/>
</g>
<g id="clust16" class="cluster">
<title>cluster_CoreModule_exports</title>
<polygon fill="none" stroke="#000000" points="1234,-146 1234,-198 1366,-198 1366,-146 1234,-146"/>
</g>
<g id="clust19" class="cluster">
<title>cluster_ValidationWarningModule</title>
<polygon fill="none" stroke="#000000" stroke-dasharray="1,5" points="1518,-138 1518,-342 1702,-342 1702,-138 1518,-138"/>
</g>
<g id="clust21" class="cluster">
<title>cluster_ValidationWarningModule_imports</title>
<polygon fill="none" stroke="#000000" points="1530,-146 1530,-198 1690,-198 1690,-146 1530,-146"/>
</g>
<g id="clust22" class="cluster">
<title>cluster_ValidationWarningModule_exports</title>
<polygon fill="none" stroke="#000000" points="1528,-282 1528,-334 1692,-334 1692,-282 1528,-282"/>
</g>
<!-- BrowserModule -->
<g id="node1" class="node">
<title>BrowserModule</title>
<polygon fill="#8dd3c7" stroke="#000000" points="130.4734,-122 127.4734,-126 106.4734,-126 103.4734,-122 23.5266,-122 23.5266,-86 130.4734,-86 130.4734,-122"/>
<text text-anchor="middle" x="77" y="-99.8" font-family="Times,serif" font-size="14.00" fill="#000000">BrowserModule</text>
</g>
<!-- AppModule -->
<g id="node6" class="node">
<title>AppModule</title>
<polygon fill="#8dd3c7" stroke="#000000" points="536.6571,-190 533.6571,-194 512.6571,-194 509.6571,-190 453.3429,-190 453.3429,-154 536.6571,-154 536.6571,-190"/>
<text text-anchor="middle" x="495" y="-167.8" font-family="Times,serif" font-size="14.00" fill="#000000">AppModule</text>
</g>
<!-- BrowserModule&#45;&gt;AppModule -->
<g id="edge1" class="edge">
<title>BrowserModule&#45;&gt;AppModule</title>
<path fill="none" stroke="#000000" d="M77,-122.2921C77,-144.2057 77,-178 77,-178 77,-178 443.0067,-178 443.0067,-178"/>
<polygon fill="#000000" stroke="#000000" points="443.0068,-181.5001 453.0067,-178 443.0067,-174.5001 443.0068,-181.5001"/>
</g>
<!-- AppRoutingModule -->
<g id="node2" class="node">
<title>AppRoutingModule</title>
<polygon fill="#8dd3c7" stroke="#000000" points="753.2744,-122 750.2744,-126 729.2744,-126 726.2744,-122 624.7256,-122 624.7256,-86 753.2744,-86 753.2744,-122"/>
<text text-anchor="middle" x="689" y="-99.8" font-family="Times,serif" font-size="14.00" fill="#000000">AppRoutingModule</text>
</g>
<!-- AppRoutingModule&#45;&gt;AppModule -->
<g id="edge2" class="edge">
<title>AppRoutingModule&#45;&gt;AppModule</title>
<path fill="none" stroke="#000000" d="M689,-122.2228C689,-142.3652 689,-172 689,-172 689,-172 547.0951,-172 547.0951,-172"/>
<polygon fill="#000000" stroke="#000000" points="547.0951,-168.5001 537.0951,-172 547.0951,-175.5001 547.0951,-168.5001"/>
</g>
<!-- RouterModule  -->
<g id="node9" class="node">
<title>RouterModule </title>
<polygon fill="#fb8072" stroke="#000000" points="999.6523,-190 898.3477,-190 898.3477,-154 999.6523,-154 999.6523,-190"/>
<text text-anchor="middle" x="949" y="-167.8" font-family="Times,serif" font-size="14.00" fill="#000000">RouterModule </text>
</g>
<!-- AppRoutingModule&#45;&gt;RouterModule  -->
<g id="edge8" class="edge">
<title>AppRoutingModule&#45;&gt;RouterModule </title>
<path fill="none" stroke="#000000" stroke-dasharray="5,2" d="M721.1936,-122.0225C721.1936,-139.3734 721.1936,-163 721.1936,-163 721.1936,-163 888.1593,-163 888.1593,-163"/>
<polygon fill="#000000" stroke="#000000" points="888.1594,-166.5001 898.1593,-163 888.1593,-159.5001 888.1594,-166.5001"/>
</g>
<!-- AngularMessagesModule.forRoot() -->
<g id="node3" class="node">
<title>AngularMessagesModule.forRoot()</title>
<polygon fill="#8dd3c7" stroke="#000000" points="365.2141,-122 362.2141,-126 341.2141,-126 338.2141,-122 148.7859,-122 148.7859,-86 365.2141,-86 365.2141,-122"/>
<text text-anchor="middle" x="257" y="-99.8" font-family="Times,serif" font-size="14.00" fill="#000000">AngularMessagesModule.forRoot()</text>
</g>
<!-- AngularMessagesModule.forRoot()&#45;&gt;AppModule -->
<g id="edge3" class="edge">
<title>AngularMessagesModule.forRoot()&#45;&gt;AppModule</title>
<path fill="none" stroke="#000000" d="M257,-122.2667C257,-140.5552 257,-166 257,-166 257,-166 443.2712,-166 443.2712,-166"/>
<polygon fill="#000000" stroke="#000000" points="443.2713,-169.5001 453.2712,-166 443.2712,-162.5001 443.2713,-169.5001"/>
</g>
<!-- ValidationWarningModule.forRoot() -->
<g id="node4" class="node">
<title>ValidationWarningModule.forRoot()</title>
<polygon fill="#8dd3c7" stroke="#000000" points="606.998,-122 603.998,-126 582.998,-126 579.998,-122 383.002,-122 383.002,-86 606.998,-86 606.998,-122"/>
<text text-anchor="middle" x="495" y="-99.8" font-family="Times,serif" font-size="14.00" fill="#000000">ValidationWarningModule.forRoot()</text>
</g>
<!-- ValidationWarningModule.forRoot()&#45;&gt;AppModule -->
<g id="edge4" class="edge">
<title>ValidationWarningModule.forRoot()&#45;&gt;AppModule</title>
<path fill="none" stroke="#000000" d="M495,-122.2228C495,-122.2228 495,-143.7269 495,-143.7269"/>
<polygon fill="#000000" stroke="#000000" points="491.5001,-143.7269 495,-153.7269 498.5001,-143.727 491.5001,-143.7269"/>
</g>
<!-- CoreModule -->
<g id="node5" class="node">
<title>CoreModule</title>
<polygon fill="#8dd3c7" stroke="#000000" points="858.2619,-122 855.2619,-126 834.2619,-126 831.2619,-122 771.7381,-122 771.7381,-86 858.2619,-86 858.2619,-122"/>
<text text-anchor="middle" x="815" y="-99.8" font-family="Times,serif" font-size="14.00" fill="#000000">CoreModule</text>
</g>
<!-- CoreModule&#45;&gt;AppModule -->
<g id="edge5" class="edge">
<title>CoreModule&#45;&gt;AppModule</title>
<path fill="none" stroke="#000000" d="M815,-122.2479C815,-145.0179 815,-181 815,-181 815,-181 546.8344,-181 546.8344,-181"/>
<polygon fill="#000000" stroke="#000000" points="546.8344,-177.5001 536.8344,-181 546.8344,-184.5001 546.8344,-177.5001"/>
</g>
<!-- CommonModule  -->
<g id="node11" class="node">
<title>CommonModule </title>
<polygon fill="#fb8072" stroke="#000000" points="1357.6677,-190 1242.3323,-190 1242.3323,-154 1357.6677,-154 1357.6677,-190"/>
<text text-anchor="middle" x="1300" y="-167.8" font-family="Times,serif" font-size="14.00" fill="#000000">CommonModule </text>
</g>
<!-- CoreModule&#45;&gt;CommonModule  -->
<g id="edge10" class="edge">
<title>CoreModule&#45;&gt;CommonModule </title>
<path fill="none" stroke="#000000" stroke-dasharray="5,2" d="M858.4673,-110C977.5111,-110 1300,-110 1300,-110 1300,-110 1300,-143.7333 1300,-143.7333"/>
<polygon fill="#000000" stroke="#000000" points="1296.5001,-143.7333 1300,-153.7333 1303.5001,-143.7333 1296.5001,-143.7333"/>
</g>
<!-- AppComponent  -->
<g id="node7" class="node">
<title>AppComponent </title>
<polygon fill="#80b1d3" stroke="#000000" points="549.439,-258 440.561,-258 440.561,-222 549.439,-222 549.439,-258"/>
<text text-anchor="middle" x="495" y="-235.8" font-family="Times,serif" font-size="14.00" fill="#000000">AppComponent </text>
</g>
<!-- AppModule&#45;&gt;AppComponent  -->
<g id="edge6" class="edge">
<title>AppModule&#45;&gt;AppComponent </title>
<path fill="none" stroke="#000000" stroke-dasharray="1,5" d="M495,-190.2228C495,-190.2228 495,-211.7269 495,-211.7269"/>
<polygon fill="#000000" stroke="#000000" points="491.5001,-211.7269 495,-221.7269 498.5001,-211.727 491.5001,-211.7269"/>
</g>
<!-- RouterModule.forRoot(args) -->
<g id="node8" class="node">
<title>RouterModule.forRoot(args)</title>
<polygon fill="#8dd3c7" stroke="#000000" points="1201.8419,-190 1198.8419,-194 1177.8419,-194 1174.8419,-190 1024.1581,-190 1024.1581,-154 1201.8419,-154 1201.8419,-190"/>
<text text-anchor="middle" x="1113" y="-167.8" font-family="Times,serif" font-size="14.00" fill="#000000">RouterModule.forRoot(args)</text>
</g>
<!-- RouterModule.forRoot(args)&#45;&gt;AppRoutingModule -->
<g id="edge7" class="edge">
<title>RouterModule.forRoot(args)&#45;&gt;AppRoutingModule</title>
<path fill="none" stroke="#000000" d="M1113,-153.8056C1113,-145.7218 1113,-138 1113,-138 1113,-138 656.8065,-138 656.8065,-138 656.8065,-138 656.8065,-132.1944 656.8065,-132.1944"/>
<polygon fill="#000000" stroke="#000000" points="660.3065,-132.1944 656.8065,-122.1944 653.3065,-132.1945 660.3065,-132.1944"/>
</g>
<!-- CommonModule -->
<g id="node10" class="node">
<title>CommonModule</title>
<polygon fill="#8dd3c7" stroke="#000000" points="1493.6681,-190 1490.6681,-194 1469.6681,-194 1466.6681,-190 1382.3319,-190 1382.3319,-154 1493.6681,-154 1493.6681,-190"/>
<text text-anchor="middle" x="1438" y="-167.8" font-family="Times,serif" font-size="14.00" fill="#000000">CommonModule</text>
</g>
<!-- CommonModule&#45;&gt;CoreModule -->
<g id="edge9" class="edge">
<title>CommonModule&#45;&gt;CoreModule</title>
<path fill="none" stroke="#000000" d="M1438,-153.7079C1438,-131.7943 1438,-98 1438,-98 1438,-98 868.3135,-98 868.3135,-98"/>
<polygon fill="#000000" stroke="#000000" points="868.3136,-94.5001 858.3135,-98 868.3135,-101.5001 868.3136,-94.5001"/>
</g>
<!-- ValidationWarningModule -->
<g id="node13" class="node">
<title>ValidationWarningModule</title>
<polygon fill="#8dd3c7" stroke="#000000" points="1693.6288,-258 1690.6288,-262 1669.6288,-262 1666.6288,-258 1526.3712,-258 1526.3712,-222 1693.6288,-222 1693.6288,-258"/>
<text text-anchor="middle" x="1610" y="-235.8" font-family="Times,serif" font-size="14.00" fill="#000000">ValidationWarningModule</text>
</g>
<!-- CommonModule&#45;&gt;ValidationWarningModule -->
<g id="edge11" class="edge">
<title>CommonModule&#45;&gt;ValidationWarningModule</title>
<path fill="none" stroke="#000000" d="M1493.6834,-178C1513.0735,-178 1530.0731,-178 1530.0731,-178 1530.0731,-178 1530.0731,-211.7333 1530.0731,-211.7333"/>
<polygon fill="#000000" stroke="#000000" points="1526.5732,-211.7333 1530.0731,-221.7333 1533.5732,-211.7333 1526.5732,-211.7333"/>
</g>
<!-- CommonModule&#45;&gt;ValidationWarningModule -->
<g id="edge14" class="edge">
<title>CommonModule&#45;&gt;ValidationWarningModule</title>
<path fill="none" stroke="#000000" d="M1493.8206,-166C1514.9312,-166 1533.9605,-166 1533.9605,-166 1533.9605,-166 1533.9605,-211.7079 1533.9605,-211.7079"/>
<polygon fill="#000000" stroke="#000000" points="1530.4606,-211.7078 1533.9605,-221.7079 1537.4606,-211.7079 1530.4606,-211.7078"/>
</g>
<!-- ReactiveFormsModule -->
<g id="node12" class="node">
<title>ReactiveFormsModule</title>
<polygon fill="#8dd3c7" stroke="#000000" points="1682.3047,-190 1679.3047,-194 1658.3047,-194 1655.3047,-190 1537.6953,-190 1537.6953,-154 1682.3047,-154 1682.3047,-190"/>
<text text-anchor="middle" x="1610" y="-167.8" font-family="Times,serif" font-size="14.00" fill="#000000">ReactiveFormsModule</text>
</g>
<!-- ReactiveFormsModule&#45;&gt;ValidationWarningModule -->
<g id="edge12" class="edge">
<title>ReactiveFormsModule&#45;&gt;ValidationWarningModule</title>
<path fill="none" stroke="#000000" d="M1634.0507,-190.2228C1634.0507,-190.2228 1634.0507,-211.7269 1634.0507,-211.7269"/>
<polygon fill="#000000" stroke="#000000" points="1630.5508,-211.7269 1634.0507,-221.7269 1637.5508,-211.727 1630.5508,-211.7269"/>
</g>
<!-- ReactiveFormsModule&#45;&gt;ValidationWarningModule -->
<g id="edge15" class="edge">
<title>ReactiveFormsModule&#45;&gt;ValidationWarningModule</title>
<path fill="none" stroke="#000000" d="M1585.9493,-190.2228C1585.9493,-190.2228 1585.9493,-211.7269 1585.9493,-211.7269"/>
<polygon fill="#000000" stroke="#000000" points="1582.4494,-211.7269 1585.9493,-221.7269 1589.4494,-211.727 1582.4494,-211.7269"/>
</g>
<!-- ReactiveFormsModule  -->
<g id="node14" class="node">
<title>ReactiveFormsModule </title>
<polygon fill="#fb8072" stroke="#000000" points="1683.8045,-326 1536.1955,-326 1536.1955,-290 1683.8045,-290 1683.8045,-326"/>
<text text-anchor="middle" x="1610" y="-303.8" font-family="Times,serif" font-size="14.00" fill="#000000">ReactiveFormsModule </text>
</g>
<!-- ValidationWarningModule&#45;&gt;ReactiveFormsModule  -->
<g id="edge13" class="edge">
<title>ValidationWarningModule&#45;&gt;ReactiveFormsModule </title>
<path fill="none" stroke="#000000" stroke-dasharray="5,2" d="M1585.3659,-258.2228C1585.3659,-258.2228 1585.3659,-279.7269 1585.3659,-279.7269"/>
<polygon fill="#000000" stroke="#000000" points="1581.866,-279.7269 1585.3659,-289.7269 1588.866,-279.727 1581.866,-279.7269"/>
</g>
<!-- ValidationWarningModule&#45;&gt;ReactiveFormsModule  -->
<g id="edge16" class="edge">
<title>ValidationWarningModule&#45;&gt;ReactiveFormsModule </title>
<path fill="none" stroke="#000000" stroke-dasharray="5,2" d="M1634.6341,-258.2228C1634.6341,-258.2228 1634.6341,-279.7269 1634.6341,-279.7269"/>
<polygon fill="#000000" stroke="#000000" points="1631.1342,-279.7269 1634.6341,-289.7269 1638.1342,-279.727 1631.1342,-279.7269"/>
</g>
</g>
</svg>
